<svg xmlns="http://www.w3.org/2000/svg" shape-rendering="geometricPrecision" text-rendering="geometricPrecision" image-rendering="optimizeQuality" fill-rule="evenodd" clip-rule="evenodd" viewBox="0 0 512 458.789"><path fill-rule="nonzero" d="M6.678 458.789A6.676 6.676 0 010 452.114V138.645c0-5.406 4.394-9.8 9.8-9.8h117.653V11.726C127.453 5.274 132.731 0 139.18 0h232.588c6.452 0 11.727 5.29 11.727 11.726v117.119h118.684c5.381 0 9.821 4.439 9.821 9.821v313.448a6.676 6.676 0 01-6.675 6.675H6.678z"/><path fill="#E2E9E3" fill-rule="nonzero" d="M383.476 445.439H498.65V142.195H383.495v303.244h-.019zm-242.673 0h68.17v-79.251c0-7.195 5.883-13.078 13.078-13.078h67.904c7.189 0 13.069 5.88 13.069 13.069v79.26h67.117V13.35H140.803v432.089zm-13.347 0h-.003V142.195H13.35v303.244h114.106z"/><path fill="#DC3E38" d="M243.106 39.218h24.726c4.62 0 8.402 3.783 8.402 8.403v30.7h30.7c4.621 0 8.403 3.782 8.403 8.402v24.726c0 4.62-3.782 8.403-8.403 8.403h-30.7v29.977c0 4.62-3.782 8.403-8.402 8.403h-24.726c-4.62 0-8.403-3.783-8.403-8.403v-29.977h-30.688c-4.621 0-8.403-3.783-8.403-8.403V86.713c0-4.621 3.782-8.403 8.403-8.403h30.699V47.621c0-4.62 3.772-8.403 8.392-8.403z"/><path fill-rule="nonzero" d="M170.864 193.278h36.702c.621 0 1.126.513 1.126 1.125v39.292a1.14 1.14 0 01-1.126 1.125h-36.702a1.134 1.134 0 01-1.125-1.125v-39.292c0-.621.505-1.125 1.125-1.125zm247.905 98.123h47.753c.618 0 1.122.382 1.122.814v21.743c0 .428-.526.814-1.122.814h-47.753c-.599 0-1.125-.364-1.125-.814v-21.743c0-.447.508-.814 1.125-.814zm-373.805 0h47.75c.621 0 1.125.382 1.125.814v21.743c0 .428-.525.814-1.125.814h-47.75c-.599 0-1.125-.364-1.125-.814v-21.743c0-.447.507-.814 1.125-.814zm373.805-47.582h47.753c.618 0 1.122.385 1.122.814v21.743c0 .429-.526.814-1.122.814h-47.753c-.599 0-1.125-.367-1.125-.814v-21.743c0-.45.508-.814 1.125-.814zm0-47.581h47.753c.618 0 1.122.382 1.122.81v21.747c0 .428-.526.813-1.122.813h-47.753c-.599 0-1.125-.367-1.125-.813v-21.747c0-.443.508-.81 1.125-.81zM44.964 243.819h47.75c.621 0 1.125.385 1.125.814v21.743c0 .429-.525.814-1.125.814h-47.75c-.599 0-1.125-.367-1.125-.814v-21.743c0-.45.507-.814 1.125-.814zm0-47.581h47.75c.621 0 1.125.382 1.125.81v21.747c0 .428-.525.813-1.125.813h-47.75c-.599 0-1.125-.367-1.125-.813v-21.747c0-.443.507-.81 1.125-.81zm258.418 73.328h36.702c.621 0 1.125.517 1.125 1.125v39.292a1.14 1.14 0 01-1.125 1.126h-36.702a1.133 1.133 0 01-1.126-1.126v-39.292c0-.618.505-1.125 1.126-1.125zm-67.553 0h39.293c.617 0 1.125.514 1.125 1.125v39.292c0 .615-.514 1.126-1.125 1.126h-39.293a1.13 1.13 0 01-1.125-1.126v-39.292c0-.618.505-1.125 1.125-1.125zm-64.965 0h36.702c.621 0 1.126.517 1.126 1.125v39.292c0 .612-.514 1.126-1.126 1.126h-36.702a1.135 1.135 0 01-1.125-1.126v-39.292c0-.618.505-1.125 1.125-1.125zm132.518-76.288h36.702c.621 0 1.125.513 1.125 1.125v39.292c0 .609-.517 1.125-1.125 1.125h-36.702a1.132 1.132 0 01-1.126-1.125v-39.292c0-.621.505-1.125 1.126-1.125zm-67.553 0h39.293c.617 0 1.125.51 1.125 1.125v39.292c0 .612-.514 1.125-1.125 1.125h-39.293a1.13 1.13 0 01-1.125-1.125v-39.292c0-.621.505-1.125 1.125-1.125z"/></svg>